# xmcd CD database file
# Copyright (C) 1993-1997  Ti Kan
#
# Track frame offsets:
#	150
#	14625
#	26250
#	36375
#	47925
#	62325
#	76425
#	89325
#	102375
#	118650
#	126450
#	140175
#	153750
#	166050
#	180375
#	190800
#	206700
#	221625
#	237375
#	251775
#
# Disc length: 3613 seconds
#
# Revision: 1
# Processed by: cddbd v1.4b41PL1 Copyright (c) Steve Scherf et al.
# Submitted via: xmcd 2.1 PL1
#
DISCID=200e1b14
DTITLE=The Bluegrass Compact Disc
DYEAR=1900
DGENRE=
TTITLE0=Blue Ridge Cabin Home
TTITLE1=I Believe In You Darling
TTITLE2=A Hundred Years From Now
TTITLE3=On My Way Back To The Old Home
TTITLE4=Cora Is Gone
TTITLE5=The Old Home Town
TTITLE6=Take Me In the Lifeboat
TTITLE7=Sitting Alone In The Moonlight
TTITLE8=Head Over Heels
TTITLE9=Ocean Of Diamonds
TTITLE10=I'll Never Shed Another Tear
TTITLE11=Unfaithful One
TTITLE12=Is It Too Late Now
TTITLE13=Chalk Up Another One
TTITLE14=One Tear
TTITLE15=Cheyenne
TTITLE16=Devil In Disguise
TTITLE17=Age
TTITLE18=Talk It All Over WIth Him
TTITLE19=Model Church
EXTD=
EXTT0=
EXTT1=
EXTT2=
EXTT3=
EXTT4=
EXTT5=
EXTT6=
EXTT7=
EXTT8=
EXTT9=
EXTT10=
EXTT11=
EXTT12=
EXTT13=
EXTT14=
EXTT15=
EXTT16=
EXTT17=
EXTT18=
EXTT19=
PLAYORDER=
